# xmcd
#
# Track frame offsets: 
#        150
#        16214
#        34086
#        56784
#        69185
#
# Disc length: 1201 seconds
#
# Revision: 0
# Processed by: cddbd v1.5.2PL0 Copyright (c) Steve Scherf et al.
# Submitted via: ExactAudioCopy v1.0b2
#
DISCID=3804af05
DTITLE=Transvaal Diamond Syndicate - Diamonds and Dust
DYEAR=2010
DGENRE=Blues
TTITLE0=Behind That Smile
TTITLE1=Swampdance
TTITLE2=Hangman's Noose
TTITLE3=Home
TTITLE4=Train A Comin'
EXTD=
EXTT0=
EXTT1=
EXTT2=
EXTT3=
EXTT4=
PLAYORDER=
